<?xml version="1.0" standalone="no"?><!DOCTYPE svg PUBLIC "-//W3C//DTD SVG 1.1//EN" "http://www.w3.org/Graphics/SVG/1.1/DTD/svg11.dtd"><svg t="1670376820834" class="icon" viewBox="0 0 1024 1024" version="1.1" xmlns="http://www.w3.org/2000/svg" p-id="4542" xmlns:xlink="http://www.w3.org/1999/xlink" width="200" height="200"><path d="M344 525v239.5a4 4 0 0 0 4 4h56a4 4 0 0 0 4-4V525c35.9-12.8 62.1-46.3 63.9-86a96.2 96.2 0 0 0-63.9-95v-84.5a4 4 0 0 0-4-4h-56a4 4 0 0 0-4 4V344c-35.9 12.8-62.1 46.3-63.9 86a96.2 96.2 0 0 0 63.9 95z m35.5-122.3a32 32 0 1 1-35.3 35.3 32.1 32.1 0 0 1 35.3-35.3zM616 680v84.5a4 4 0 0 0 4 4h56a4 4 0 0 0 4-4V680c35.9-12.8 62.1-46.3 63.9-86a96.2 96.2 0 0 0-63.9-95V259.5a4 4 0 0 0-4-4h-56a4 4 0 0 0-4 4V499c-35.9 12.8-62.1 46.3-63.9 86a96.2 96.2 0 0 0 63.9 95z m35.5-122.3a32 32 0 1 1-35.3 35.3 32.1 32.1 0 0 1 35.3-35.3zM856 128H168a40 40 0 0 0-40 40v688a40 40 0 0 0 40 40h688a40 40 0 0 0 40-40V168a40 40 0 0 0-40-40z m-32 696H200V200h624z" p-id="4543"></path></svg>