<?xml version="1.0" standalone="no"?><!DOCTYPE svg PUBLIC "-//W3C//DTD SVG 1.1//EN" "http://www.w3.org/Graphics/SVG/1.1/DTD/svg11.dtd"><svg t="1670376733351" class="icon" viewBox="0 0 1024 1024" version="1.1" xmlns="http://www.w3.org/2000/svg" p-id="3693" xmlns:xlink="http://www.w3.org/1999/xlink" width="200" height="200"><path d="M951.5 651.3L866 362.6l-2.4-3.8c-8.3-13.2-28.2-27.5-52.5-27.5h-92l56.2-153c6.3-17.2-2.6-36.4-19.7-42.7l-6.3-2.3c-17.2-6.3-36.4 2.6-42.7 19.7l-65.5 178.1v0.2h-91.5V159.9c0-18.3-15-33.2-33.2-33.2h-6.7c-18.3 0-33.2 15-33.2 33.2v171.5H385v-0.2L319.4 153c-6.3-17.2-25.5-26-42.7-19.7l-6.3 2.3c-17.2 6.3-26 25.5-19.7 42.7l56.2 153h-92c-22.4 0-42.1 12.6-50.9 24.4l-3.5 4.7L74 652.3c-5.6 10.7-9.1 22.8-9.1 35.7v131c0 42.8 34.8 77.5 77.5 77.5h741.1c42.8 0 77.5-34.8 77.5-77.5V688c0.1-13.3-3.6-25.7-9.5-36.7zM218.7 397.8H807l63 212.7H155.7l63-212.7z m664.9 432.3H142.4c-6 0-11.1-5.1-11.1-11.1V692.7l3.8-12.8c2-1.8 4.5-2.9 7.3-2.9h741.1c2.7 0 5.1 1.1 7 2.7l4.1 13.8V819c0 6-5 11.1-11 11.1z" fill="#666666" p-id="3694"></path><path d="M195.7 716.9c-20.2 0-36.6 16.4-36.6 36.6s16.4 36.6 36.6 36.6c20.2 0 36.6-16.4 36.6-36.6s-16.3-36.6-36.6-36.6z" fill="#666666" p-id="3695"></path><path d="M305.6 753.5m-36.6 0a36.6 36.6 0 1 0 73.2 0 36.6 36.6 0 1 0-73.2 0Z" fill="#666666" p-id="3696"></path><path d="M614 716.9H412c-18.3 0-33.2 15-33.2 33.2v6.7c0 18.3 15 33.2 33.2 33.2h202c18.3 0 33.2-15 33.2-33.2v-6.7c0-18.2-14.9-33.2-33.2-33.2z" fill="#666666" p-id="3697"></path></svg>