<?xml version="1.0" standalone="no"?><!DOCTYPE svg PUBLIC "-//W3C//DTD SVG 1.1//EN" "http://www.w3.org/Graphics/SVG/1.1/DTD/svg11.dtd"><svg t="1670376848038" class="icon" viewBox="0 0 1024 1024" version="1.1" xmlns="http://www.w3.org/2000/svg" p-id="4821" xmlns:xlink="http://www.w3.org/1999/xlink" width="200" height="200"><path d="M896 149.333333a21.333333 21.333333 0 0 1 21.333333 21.333334v682.666666a21.333333 21.333333 0 0 1-21.333333 21.333334H128a21.333333 21.333333 0 0 1-21.333333-21.333334V170.666667a21.333333 21.333333 0 0 1 21.333333-21.333334z m-21.333333 512h-725.333334l0.042667 170.666667h725.333333l-0.042666-170.666667z m-297.557334 42.666667a21.333333 21.333333 0 0 1 3.84 42.325333l-3.84 0.341334H213.333333a21.333333 21.333333 0 0 1-3.84-42.325334L213.333333 704h363.776z m234.538667 0a21.333333 21.333333 0 0 1 3.84 42.325333l-3.84 0.341334H682.666667a21.333333 21.333333 0 0 1-3.84-42.325334L682.666667 704h128.981333z m63.061333-512h-725.333333l-0.042667 426.666667h725.333334l0.042666-426.666667zM446.037333 235.178667l1.877334 3.626666 101.290666 249.472 70.826667-190.976a21.333333 21.333333 0 0 1 38.485333-3.242666l1.706667 3.797333 40.362667 118.528H810.666667a21.333333 21.333333 0 0 1 20.992 17.493333l0.341333 3.84a21.333333 21.333333 0 0 1-17.493333 21.034667l-3.84 0.341333h-125.354667a21.333333 21.333333 0 0 1-18.645333-10.965333l-1.578667-3.498667-25.941333-76.288-69.12 186.282667a21.333333 21.333333 0 0 1-37.888 4.181333l-1.834667-3.584L426.24 298.837333 360.448 431.786667a21.333333 21.333333 0 0 1-15.146667 11.477333L341.333333 443.648H213.333333a21.333333 21.333333 0 0 1-3.84-42.325333L213.333333 400.981333l114.773334-0.042666 80.938666-163.584a21.333333 21.333333 0 0 1 36.992-2.176z" p-id="4822"></path></svg>