<?xml version="1.0" standalone="no"?><!DOCTYPE svg PUBLIC "-//W3C//DTD SVG 1.1//EN" "http://www.w3.org/Graphics/SVG/1.1/DTD/svg11.dtd"><svg t="1670376797329" class="icon" viewBox="0 0 1024 1024" version="1.1" xmlns="http://www.w3.org/2000/svg" p-id="4398" xmlns:xlink="http://www.w3.org/1999/xlink" width="200" height="200"><path d="M329.6 758.186667c5.76 6.4 14.08 9.6 22.4 9.6 4.48 0 8.32-0.64 12.16-2.56 3.84-1.28 7.68-3.84 10.24-7.04 3.2-2.56 5.76-6.4 7.04-10.24 1.92-3.84 2.56-7.68 2.56-12.16s-0.64-8.32-2.56-12.16c-1.28-3.84-3.84-7.68-7.04-10.24-11.52-12.16-33.28-12.16-44.8 0-3.2 2.56-5.76 6.4-7.04 10.24-1.92 3.84-2.56 7.68-2.56 12.16 0 8.32 3.2 16.64 9.6 22.4zM201.6 758.186667c5.76 6.4 14.08 9.6 22.4 9.6 4.48 0 8.32-0.64 12.16-2.56 3.84-1.28 7.68-3.84 10.24-7.04 3.2-2.56 5.76-6.4 7.04-10.24 1.92-3.84 2.56-7.68 2.56-12.16s-0.64-8.32-2.56-12.16c-1.28-3.84-3.84-7.68-7.04-10.24-11.52-12.16-33.28-12.16-44.8 0-3.2 2.56-5.76 6.4-7.04 10.24-1.92 3.84-2.56 7.68-2.56 12.16 0 8.32 3.2 16.64 9.6 22.4zM736 384H589.226667l-32-32 32-32H704c17.706667 0 32-14.293333 32-32s-14.293333-32-32-32H576c-4.16 0-8.32 0.853333-12.266667 2.453333-3.946667 1.6-7.466667 3.946667-10.453333 6.933334L512 306.773333l-41.386667-41.386666c-2.986667-2.986667-6.506667-5.333333-10.453333-6.933334-3.946667-1.6-8.106667-2.453333-12.266667-2.453333H320c-17.706667 0-32 14.293333-32 32s14.293333 32 32 32h114.773333l32 32-32 32H288c-17.706667 0-32 14.293333-32 32s14.293333 32 32 32h160c4.16 0 8.32-0.853333 12.266667-2.453333 3.946667-1.6 7.466667-3.946667 10.453333-6.933334l41.386667-41.386666 41.386666 41.386666c2.986667 2.986667 6.506667 5.333333 10.453334 6.933334 3.946667 1.6 8.106667 2.453333 12.266666 2.453333h160c17.706667 0 32-14.293333 32-32s-14.506667-32-32.213333-32z" p-id="4399"></path><path d="M958.4 597.973333L830.72 151.253333c-3.946667-13.76-16.426667-23.253333-30.72-23.253333H224c-14.293333 0-26.88 9.493333-30.826667 23.253333l-128 448c0 0.106667 0 0.213333-0.106666 0.32-0.106667 0.426667-0.213333 0.746667-0.32 1.173334 0 0.213333-0.106667 0.426667-0.106667 0.64-0.106667 0.32-0.106667 0.64-0.213333 1.066666 0 0.213333-0.106667 0.533333-0.106667 0.746667 0 0.213333-0.106667 0.533333-0.106667 0.746667-0.213333 1.28-0.32 2.666667-0.32 3.946666V864c0 17.706667 14.293333 32 32 32h832c17.706667 0 32-14.293333 32-32V608c0.106667-3.52-0.426667-6.826667-1.493333-10.026667zM248.106667 192h527.786666l109.653334 384H138.453333l109.653334-384zM896 832H128V640h768v192z" p-id="4400"></path><path d="M544 768h192c17.706667 0 32-14.293333 32-32s-14.293333-32-32-32H544c-17.706667 0-32 14.293333-32 32s14.293333 32 32 32z" p-id="4401"></path></svg>