<?xml version="1.0" encoding="utf-8"?>
<!-- Generator: Adobe Illustrator 25.2.3, SVG Export Plug-In . SVG Version: 6.00 Build 0)  -->
<svg version="1.1" id="图层_1" xmlns="http://www.w3.org/2000/svg" xmlns:xlink="http://www.w3.org/1999/xlink" x="0px" y="0px"
	 viewBox="0 0 1920 450" style="enable-background:new 0 0 1920 450;" xml:space="preserve">
<style type="text/css">
	.st0{fill:#FE0000;}
	.st1{fill:none;stroke:#FE0000;stroke-width:44.9919;stroke-linecap:round;stroke-linejoin:round;stroke-miterlimit:10;}
	.st2{fill:#FE0000;stroke:#FE0000;stroke-width:5.4647;stroke-miterlimit:10;}
	.st3{fill:#FE0000;stroke:#FE0000;stroke-width:5.3934;stroke-miterlimit:10;}
	.st4{fill:#FEF5F5;stroke:#FEF5F5;stroke-width:2.1559;stroke-miterlimit:10;}
	.st5{fill:#FEF5F5;stroke:#FEF5F5;stroke-width:1.6169;stroke-miterlimit:10;}
	.st6{fill:#FE6464;stroke:#FE6464;stroke-width:4.3117;stroke-miterlimit:10;}
	.st7{fill:#FE1818;stroke:#FE1818;stroke-width:4.3117;stroke-miterlimit:10;}
	.st8{fill:none;stroke:#FE0000;stroke-width:5.4647;stroke-miterlimit:10;}
</style>
<g>
	<g>
		<g>
			<path class="st0" d="M609.15,20.61v408.38c0,0.89-0.72,1.61-1.6,1.61l-2.88,0.01c-0.89,0-1.61-0.72-1.61-1.61V20.62
				c0-0.89,0.72-1.61,1.61-1.61l2.88-0.01C608.43,19,609.15,19.72,609.15,20.61z"/>
		</g>
		<g>
			<path class="st1" d="M1203.89,109.24c0,43.64-1.92,87.39,0.39,130.91c5.25,99.15,63.45,113.24,173.83,88.14V109.24"/>
			<path class="st1" d="M1887.99,109.04c0,77.59,0,155.17,0,232.76"/>
			<path class="st1" d="M827.36,109.2c-4.84,72.74-9.68,145.47-14.52,218.21"/>
			<path class="st1" d="M1030.62,109.2c4.84,72.74,9.68,145.47,14.52,218.21"/>
			<path class="st1" d="M827.36,109.2c31.21,59.93,70.14,139.13,101.63,199.95"/>
			<path class="st1" d="M1721.06,109.26c-58.07,77.59-116.15,155.17-174.22,232.76"/>
			<path class="st1" d="M1546.85,109.26c58.07,77.59,116.15,155.17,174.22,232.76"/>
			<path class="st1" d="M1030.62,109.2c-2.4,5.81-71.88,135.15-101.63,199.95"/>
		</g>
	</g>
	<g>
		<g>
			<path class="st2" d="M210.93,19c0.05,0,0.1,0,0.14,0H210.93z"/>
			<path class="st2" d="M211.43,19c39.73,0,79.47,0.06,119.2,0.19c55.14,0.18,78.13,27.05,78.28,54.87
				c0.61,111.11,0.6,187.59,0.01,298.71c-0.15,27.95-22.7,57.48-78.33,57.65c-39.72,0.12-79.44,0.18-119.16,0.18V19z"/>
		</g>
		<g>
			<path class="st3" d="M203.34,19c0.05,0,0.09,0,0.14,0H203.34z"/>
		</g>
		<g>
			<path class="st4" d="M266.37,110.48c-9.21,66.38,1.48,133.59-8.32,199.96c-3.54,23.98-8.54,47.41-21.65,68.53
				c2.48-26.57,9.85-52.24,12.72-78.76c6.31-58.2-1.91-117.01,8.26-174.96c0.9-5.14,0.19-10.75,4.41-14.89
				C263.38,108.14,264.91,108.19,266.37,110.48z"/>
			<path class="st4" d="M266.37,110.48c-1.52-0.04-6,4.89-7.53,4.85c0.31-5.72,3.57-16.4,3.89-22.12
				c29.93,9.24,60.43,3.8,90.74,3.57c4.7-0.91,7.01,0.51,5.48,5.66c-1.68,1.22-3.37,2.44-5.05,3.65
				c-28.06,3.97-56.15,2.78-84.24,0.39C268.56,107.81,267.47,109.14,266.37,110.48z"/>
			<path class="st4" d="M352.51,70.15c-31.51-0.45-63.01-0.9-94.52-1.35c1.04-1.91,1.99-5.44,3.12-5.5
				c32.25-1.65,64.58-5.46,96.64,2.02C358.76,69.94,356.82,71.34,352.51,70.15z"/>
			<path class="st4" d="M269.66,106.48c28.08-0.13,56.16-0.26,84.24-0.39c-30-2.19-37.37,13.48-32.06,39.99
				c0.97,4.86-0.83,10.29-1.48,16.68c-1.48-2.34-2.68-3.37-2.73-4.45c-0.71-15.68,4.28-35.38-3.36-45.96
				C306.08,101.03,284.51,113.09,269.66,106.48z"/>
			<path class="st4" d="M345.52,161.07c-5.09-1.32-14.06,2.84-13.78-6.47c0.23-7.66,8.18-7.21,14.25-7.15
				c5.89,0.05,13.83-1.18,13.7,7.23C359.55,163.93,350.87,159.92,345.52,161.07z"/>
			<path class="st4" d="M292.79,161.06c-5.82-1.5-14.51,2.79-15.14-5.87c-0.61-8.31,7.51-7.48,13.33-7.45
				c5.68,0.02,13.39-1.68,13.31,7.26C304.22,163.07,296.67,159.64,292.79,161.06z"/>
			<path class="st4" d="M273.96,129.4c12.68-6.94,21.16-6.44,34.66-0.75C295.31,134.9,286.83,134.55,273.96,129.4z"/>
			<path class="st4" d="M364.18,127.97c-13.91,7.49-22.11,5.04-36.9,3.74C341.53,121.98,349.94,123.51,364.18,127.97z"/>
			<path class="st4" d="M338.73,247.22c-10.7-0.1-15.91-1.92-17.17-14.62c-1.99-20.1,2.84-30.09,24.81-26.23
				c4.95,0.87,10.69,1.44,18.04-5.49c-13.71-7.43-27.78-6.81-40.85-5.84c0.07-5.85-0.71-11.47-2.83-20.78
				c-2.53,9.45-3.74,15.15-3.45,21.25c-0.75,0.05-1.5,0.1-2.24,0.15c-15.44,0.92-23.07-2.13-23.45-19.28
				c-5.27,18.94-10.38,36.53-18.87,53.2c5.1-2.87,10.22-6.03,11.64-10.4c4.82-14.9,17.46-15.91,27.18-11.73
				c13.06,5.61,4.95,19.84,5.3,30c0.55,15.95-12.97,7.39-20.34,9.41c-9.71,2.67-21.89-5.02-30.95,6.75
				c11.21,6.48,22.15,4.16,32.15,3.25c16.45-1.5,20.61,4.61,19.74,20.33c-1.35,24.19,0.52,84.99,0.52,109.25
				c0.49,5.18,3.15-0.01,5.16-0.03c0-24.15,0.98-84.87-0.35-108.95c-0.87-15.72,3.27-21.85,19.79-20.63
				c10.85,0.8,23.16,3.93,36.82-5.36C363.83,244.15,350.97,247.34,338.73,247.22z"/>
			<path class="st5" d="M351.97,68.6c3.44-1.77,2.49-1.29,5.93-3.06c7.98,11.37,6.73,23.03,1.93,34.81
				c-3.99-1.1-2.64-0.73-6.63-1.83C354.8,88.47,355.59,78.46,351.97,68.6z"/>
		</g>
		<g>
			<path class="st6" d="M68.3,320.12c1.44,3.07,2.88,6.15,4.32,9.22c-2.78,16.81-7.35,32.97-19.4,46.74
				C58.25,357.43,63.27,338.77,68.3,320.12z"/>
			<path class="st6" d="M118.38,79.23c-3.13,2.45-2.7,8.95-8.93,7.89c3.24-7.86-2.4-17.6,6.19-26.26
				C120.65,67.04,119.78,73.08,118.38,79.23z"/>
			<path class="st6" d="M150.14,151.97c-1.46,3.41-2.91,6.81-4.37,10.22c-5.53-18.79-11.06-37.58-16.59-56.37
				c1.37-0.21,2.73-0.19,4.1,0.06C145.49,118.82,147.16,135.64,150.14,151.97z"/>
			<path class="st7" d="M99.57,104.68c-6.76-7.66-15.74-2.99-23.65-4.2c-4.5-0.69-10.2-0.35-10.47-6.19
				c-0.27-5.83,5.07-6.67,9.81-6.75c11.4-0.2,22.8-0.28,34.2-0.41c4.75-0.62,0.67-11.26,8.93-7.89c5.06,17.19,18.89,4.39,27.99,8.06
				c4.96,2,14.1-2.85,14.74,5.58c0.82,10.8-9.07,6.57-14.93,7.57c-4.75,0.81-10.92-1.91-12.91,5.44c-1.39,1.85-2.76,1.74-4.1-0.06
				c-3.21-3.04-7.43-7.71-9.34,0.05c-1.58,6.46-0.44,13.6-0.44,20.44c-0.01,87.37-0.01,174.74-4.19,262.48
				c-0.78-8.02-1.93-16.02-2.29-24.06c-3.64-82.07-2.13-164.17-1.73-246.27c0.02-3.52,9.05-19.9-8.93-11.28
				C100.01,107.82,99.18,106.91,99.57,104.68z"/>
			<path class="st7" d="M150.14,151.97c13.97,58.88,7.65,119.94,19.15,179.09c3.4,17.48,6.59,35.01,7.87,52.8
				c-28.56-71.31-25.32-147.15-31.39-221.67C144.97,157.81,141.53,152.3,150.14,151.97z"/>
			<path class="st7" d="M102.26,107.18c-16.54,32.97-17.91,68.81-18.62,104.47c-0.79,39.56-0.96,79.05-11.02,117.69
				c-8.66,0.33-5.35-4.98-4.32-9.22c9.59-59.38-0.53-120.29,13.9-179.32c3.26-13.34,6.8-26.38,17.37-36.11
				C100.46,105.53,101.35,106.36,102.26,107.18z"/>
		</g>
		<g>
			<path class="st8" d="M210.93,19c-0.05,0-0.1,0-0.14,0H210.93z"/>
			<path class="st8" d="M210.44,19c-39.73,0-79.47,0.06-119.2,0.19C36.1,19.37,13.11,46.24,12.96,74.07
				c-0.61,111.11-0.6,187.59-0.01,298.71c0.15,27.95,22.7,57.48,78.33,57.65c39.72,0.12,79.44,0.18,119.16,0.18V19z"/>
		</g>
	</g>
</g>
</svg>
