<?xml version="1.0" encoding="utf-8"?>
<!-- Generator: Adobe Illustrator 25.2.3, SVG Export Plug-In . SVG Version: 6.00 Build 0)  -->
<svg version="1.1" id="图层_1" xmlns="http://www.w3.org/2000/svg" xmlns:xlink="http://www.w3.org/1999/xlink" x="0px" y="0px"
	 viewBox="0 0 800 800" style="enable-background:new 0 0 800 800;" xml:space="preserve">
<style type="text/css">
	.st0{fill:#FE0000;stroke:#FE0000;stroke-width:9.2513;stroke-miterlimit:10;}
	.st1{fill:#FE0000;stroke:#FE0000;stroke-width:9.1306;stroke-miterlimit:10;}
	.st2{fill:#FEF5F5;stroke:#FEF5F5;stroke-width:3.6497;stroke-miterlimit:10;}
	.st3{fill:#FEF5F5;stroke:#FEF5F5;stroke-width:2.7373;stroke-miterlimit:10;}
	.st4{fill:#FE6464;stroke:#FE6464;stroke-width:7.2995;stroke-miterlimit:10;}
	.st5{fill:#FE1818;stroke:#FE1818;stroke-width:7.2995;stroke-miterlimit:10;}
	.st6{fill:none;stroke:#FE0000;stroke-width:9.2513;stroke-miterlimit:10;}
</style>
<g>
	<g>
		<path class="st0" d="M400.12,21.09c0.09,0,0.18,0,0.26,0H400.12z"/>
		<path class="st0" d="M401.03,21.1c73.16,0,146.33,0.12,219.49,0.36c101.53,0.33,143.86,49.8,144.14,101.04
			c1.12,204.6,1.1,345.42,0.02,550.02c-0.27,51.46-41.79,105.84-144.24,106.15c-73.13,0.22-146.27,0.34-219.41,0.34V21.1z"/>
	</g>
	<g>
		<path class="st1" d="M386.15,21.1c0.09,0,0.17,0,0.26,0H386.15z"/>
	</g>
	<g>
		<path class="st2" d="M504.63,189.53c-16.96,122.23,2.72,245.98-15.32,368.18c-6.51,44.15-15.73,87.3-39.87,126.18
			c4.56-48.93,18.13-96.19,23.43-145.02c11.62-107.17-3.52-215.45,15.2-322.15c1.66-9.47,0.35-19.79,8.13-27.42
			C499.13,185.24,501.94,185.31,504.63,189.53z"/>
		<path class="st2" d="M504.63,189.53c-2.81-0.08-11.05,9-13.86,8.92c0.57-10.53,6.58-30.21,7.16-40.73
			c55.11,17.02,111.28,6.99,167.07,6.58c8.66-1.68,12.91,0.93,10.09,10.42c-3.1,2.24-6.2,4.49-9.31,6.73
			c-51.67,7.3-103.38,5.12-155.1,0.72C508.67,184.62,506.65,187.08,504.63,189.53z"/>
		<path class="st2" d="M663.23,115.27c-58.01-0.83-116.03-1.66-174.04-2.49c1.91-3.52,3.66-10.01,5.74-10.12
			c59.39-3.04,118.91-10.06,177.95,3.72C674.75,114.89,671.17,117.46,663.23,115.27z"/>
		<path class="st2" d="M510.68,182.17c51.7-0.24,103.4-0.48,155.1-0.72c-55.23-4.04-68.81,24.82-59.03,73.64
			c1.79,8.96-1.54,18.94-2.73,30.72c-2.72-4.31-4.93-6.2-5.02-8.19c-1.31-28.87,7.87-65.15-6.19-84.62
			C577.74,172.13,538.03,194.34,510.68,182.17z"/>
		<path class="st2" d="M650.36,282.68c-9.37-2.43-25.89,5.23-25.37-11.9c0.43-14.1,15.07-13.27,26.24-13.17
			c10.85,0.1,25.46-2.18,25.22,13.32C676.2,287.96,660.21,280.57,650.36,282.68z"/>
		<path class="st2" d="M553.27,282.67c-10.72-2.76-26.71,5.13-27.88-10.81c-1.12-15.31,13.82-13.77,24.55-13.72
			c10.45,0.05,24.65-3.09,24.5,13.37C574.31,286.37,560.42,280.06,553.27,282.67z"/>
		<path class="st2" d="M518.61,224.38c23.34-12.78,38.96-11.85,63.82-1.38C557.91,234.5,542.3,233.86,518.61,224.38z"/>
		<path class="st2" d="M684.72,221.74c-25.61,13.8-40.72,9.28-67.95,6.88C643.01,210.71,658.5,213.54,684.72,221.74z"/>
		<path class="st2" d="M637.87,441.32c-19.7-0.19-29.3-3.54-31.61-26.92c-3.66-37,5.23-55.4,45.69-48.29
			c9.11,1.6,19.69,2.65,33.23-10.11c-25.24-13.68-51.15-12.54-75.22-10.75c0.13-10.77-1.31-21.13-5.21-38.27
			c-4.65,17.39-6.88,27.89-6.36,39.12c-1.38,0.1-2.76,0.19-4.12,0.27c-28.43,1.7-42.48-3.92-43.18-35.49
			c-9.71,34.88-19.11,67.26-34.75,97.96c9.38-5.28,18.82-11.1,21.42-19.15c8.88-27.43,32.14-29.3,50.06-21.6
			c24.04,10.32,9.12,36.53,9.77,55.24c1.02,29.36-23.89,13.61-37.44,17.33c-17.88,4.91-40.31-9.25-56.99,12.44
			c20.65,11.92,40.79,7.67,59.19,5.98c30.29-2.77,37.95,8.49,36.34,37.44c-2.48,44.53,0.96,156.49,0.96,201.16
			c0.89,9.53,5.8-0.02,9.5-0.05c0-44.48,1.81-156.27-0.65-200.61c-1.61-28.94,6.03-40.23,36.45-37.99
			c19.97,1.47,42.64,7.23,67.8-9.88C684.08,435.67,660.4,441.53,637.87,441.32z"/>
		<path class="st3" d="M662.25,112.42c6.33-3.26,4.59-2.37,10.92-5.63c14.7,20.93,12.4,42.41,3.55,64.1
			c-7.34-2.03-4.86-1.35-12.21-3.38C667.45,149.02,668.92,130.57,662.25,112.42z"/>
	</g>
	<g>
		<path class="st4" d="M135.06,575.55c2.65,5.66,5.31,11.32,7.96,16.98c-5.11,30.95-13.53,60.7-35.71,86.07
			C116.56,644.24,125.81,609.89,135.06,575.55z"/>
		<path class="st4" d="M227.28,132c-5.77,4.52-4.97,16.49-16.44,14.54c5.96-14.48-4.42-32.4,11.4-48.34
			C231.45,109.55,229.86,120.66,227.28,132z"/>
		<path class="st4" d="M285.76,265.93c-2.68,6.27-5.37,12.55-8.05,18.82c-10.18-34.59-20.36-69.19-30.54-103.79
			c2.52-0.39,5.03-0.36,7.54,0.11C277.21,204.89,280.27,235.86,285.76,265.93z"/>
		<path class="st5" d="M192.64,178.87c-12.44-14.11-28.98-5.5-43.55-7.73c-8.29-1.27-18.78-0.64-19.27-11.4
			c-0.49-10.73,9.34-12.28,18.05-12.43c20.99-0.37,41.98-0.52,62.97-0.76c8.74-1.14,1.23-20.74,16.44-14.54
			c9.32,31.64,34.79,8.08,51.55,14.84c9.13,3.68,25.96-5.25,27.14,10.27c1.51,19.88-16.71,12.09-27.48,13.93
			c-8.74,1.49-20.11-3.52-23.77,10.01c-2.56,3.42-5.07,3.21-7.54-0.11c-5.91-5.6-13.69-14.2-17.19,0.1
			c-2.91,11.89-0.81,25.04-0.81,37.63c-0.02,160.87-0.01,321.74-7.72,483.31c-1.44-14.76-3.56-29.5-4.22-44.3
			c-6.69-151.12-3.91-302.29-3.19-453.46c0.03-6.48,16.66-36.64-16.44-20.78C193.46,184.63,191.93,182.96,192.64,178.87z"/>
		<path class="st5" d="M285.76,265.93c25.71,108.42,14.09,220.84,35.27,329.75c6.26,32.19,12.14,64.46,14.49,97.23
			c-52.6-131.31-46.63-270.95-57.8-408.16C276.24,276.69,269.91,266.55,285.76,265.93z"/>
		<path class="st5" d="M197.6,183.46c-30.45,60.7-32.97,126.69-34.28,192.36c-1.45,72.84-1.76,145.56-20.3,216.7
			c-15.95,0.6-9.86-9.18-7.96-16.98c17.67-109.34-0.97-221.5,25.6-330.19c6-24.56,12.53-48.57,31.98-66.5
			C194.28,180.42,195.93,181.95,197.6,183.46z"/>
	</g>
	<g>
		<path class="st6" d="M400.12,21.09c-0.09,0-0.18,0-0.26,0H400.12z"/>
		<path class="st6" d="M399.22,21.09c-73.16,0-146.33,0.12-219.49,0.36C78.2,21.78,35.87,71.25,35.59,122.49
			c-1.12,204.6-1.1,345.42-0.02,550.02c0.27,51.46,41.79,105.84,144.24,106.15c73.13,0.22,146.27,0.34,219.41,0.34V21.09z"/>
	</g>
</g>
</svg>
